<mxfile host="f8653828-2fec-4002-bc56-48be4857a37d" modified="2020-08-20T02:51:33.378Z" agent="5.0 (Windows NT 10.0; Win64; x64) AppleWebKit/537.36 (KHTML, like Gecko) Code/1.47.3 Chrome/78.0.3904.130 Electron/7.3.2 Safari/537.36" etag="XBLa9ZYJ_yumqzJOwaiY" version="13.1.3">
    <diagram id="6hGFLwfOUW9BJ-s0fimq" name="Page-1">
        <mxGraphModel dx="-317" dy="7288" grid="0" gridSize="10" guides="1" tooltips="1" connect="1" arrows="1" fold="1" page="1" pageScale="1" pageWidth="827" pageHeight="1169" background="#808080" math="0" shadow="0">
            <root>
                <mxCell id="0"/>
                <mxCell id="1" parent="0"/>
                <mxCell id="2" value="元素存储" style="align=center;strokeColor=#FFFF66;html=1;fillColor=none;strokeWidth=2;" vertex="1" parent="1">
                    <mxGeometry x="1189" y="-6874" width="80" height="20" as="geometry"/>
                </mxCell>
                <mxCell id="4" value="a&lt;sub&gt;1&lt;/sub&gt;" style="align=center;strokeColor=#FFFF66;html=1;fillColor=none;strokeWidth=2;" vertex="1" parent="1">
                    <mxGeometry x="1035" y="-6681" width="35" height="20" as="geometry"/>
                </mxCell>
                <mxCell id="5" value="......." style="align=center;strokeColor=none;html=1;fillColor=none;strokeWidth=2;" vertex="1" parent="1">
                    <mxGeometry x="1186" y="-6687" width="35" height="20" as="geometry"/>
                </mxCell>
                <mxCell id="6" value="a&lt;sub&gt;3&lt;/sub&gt;" style="align=center;strokeColor=#FFFF66;html=1;fillColor=none;strokeWidth=2;" vertex="1" parent="1">
                    <mxGeometry x="1141" y="-6681" width="35" height="20" as="geometry"/>
                </mxCell>
                <mxCell id="9" value="a&lt;sub&gt;n&lt;/sub&gt;" style="align=center;strokeColor=#FFFF66;html=1;fillColor=none;strokeWidth=2;" vertex="1" parent="1">
                    <mxGeometry x="1237" y="-6681" width="35" height="20" as="geometry"/>
                </mxCell>
                <mxCell id="10" value="a&lt;span style=&quot;font-size: 10px&quot;&gt;&lt;sub&gt;2&lt;/sub&gt;&lt;/span&gt;" style="align=center;strokeColor=#FFFF66;html=1;fillColor=none;strokeWidth=2;" vertex="1" parent="1">
                    <mxGeometry x="1089" y="-6681" width="35" height="20" as="geometry"/>
                </mxCell>
                <mxCell id="12" value="a&lt;sub&gt;4&lt;/sub&gt;" style="align=center;strokeColor=#FFFF66;html=1;fillColor=none;strokeWidth=2;" vertex="1" parent="1">
                    <mxGeometry x="1272" y="-6845" width="35" height="20" as="geometry"/>
                </mxCell>
                <mxCell id="13" value="" style="endArrow=none;html=1;strokeColor=#FFFF66;strokeWidth=2;" edge="1" parent="1">
                    <mxGeometry width="50" height="50" relative="1" as="geometry">
                        <mxPoint x="1022" y="-6655" as="sourcePoint"/>
                        <mxPoint x="1304" y="-6655" as="targetPoint"/>
                    </mxGeometry>
                </mxCell>
                <mxCell id="15" value="" style="endArrow=none;html=1;strokeColor=#FFFF66;strokeWidth=2;" edge="1" parent="1">
                    <mxGeometry width="50" height="50" relative="1" as="geometry">
                        <mxPoint x="1020" y="-6687.57" as="sourcePoint"/>
                        <mxPoint x="1302" y="-6687.57" as="targetPoint"/>
                    </mxGeometry>
                </mxCell>
                <mxCell id="16" value="" style="endArrow=open;html=1;strokeColor=#FFFF66;strokeWidth=2;endFill=0;" edge="1" parent="1">
                    <mxGeometry width="50" height="50" relative="1" as="geometry">
                        <mxPoint x="1067" y="-6714" as="sourcePoint"/>
                        <mxPoint x="1050" y="-6681" as="targetPoint"/>
                    </mxGeometry>
                </mxCell>
                <mxCell id="17" value="队头" style="text;html=1;strokeColor=none;fillColor=none;align=center;verticalAlign=middle;whiteSpace=wrap;rounded=0;" vertex="1" parent="1">
                    <mxGeometry x="1049" y="-6735" width="40" height="20" as="geometry"/>
                </mxCell>
                <mxCell id="18" value="" style="endArrow=open;html=1;strokeColor=#FFFF66;strokeWidth=2;endFill=0;" edge="1" parent="1">
                    <mxGeometry width="50" height="50" relative="1" as="geometry">
                        <mxPoint x="1275" y="-6714" as="sourcePoint"/>
                        <mxPoint x="1258" y="-6681" as="targetPoint"/>
                    </mxGeometry>
                </mxCell>
                <mxCell id="19" value="队尾" style="text;html=1;strokeColor=none;fillColor=none;align=center;verticalAlign=middle;whiteSpace=wrap;rounded=0;" vertex="1" parent="1">
                    <mxGeometry x="1256" y="-6735" width="40" height="20" as="geometry"/>
                </mxCell>
                <mxCell id="20" value="出队列" style="text;html=1;strokeColor=none;fillColor=none;align=center;verticalAlign=middle;whiteSpace=wrap;rounded=0;" vertex="1" parent="1">
                    <mxGeometry x="974" y="-6687" width="40" height="20" as="geometry"/>
                </mxCell>
                <mxCell id="21" value="进队列" style="text;html=1;strokeColor=none;fillColor=none;align=center;verticalAlign=middle;whiteSpace=wrap;rounded=0;" vertex="1" parent="1">
                    <mxGeometry x="1311" y="-6690" width="40" height="20" as="geometry"/>
                </mxCell>
                <mxCell id="22" value="" style="endArrow=open;html=1;strokeColor=#FFFF66;strokeWidth=2;endFill=0;" edge="1" parent="1">
                    <mxGeometry width="50" height="50" relative="1" as="geometry">
                        <mxPoint x="1019" y="-6669" as="sourcePoint"/>
                        <mxPoint x="960" y="-6669.29" as="targetPoint"/>
                    </mxGeometry>
                </mxCell>
                <mxCell id="24" value="" style="endArrow=open;html=1;strokeColor=#FFFF66;strokeWidth=2;endFill=0;" edge="1" parent="1">
                    <mxGeometry width="50" height="50" relative="1" as="geometry">
                        <mxPoint x="1358" y="-6669" as="sourcePoint"/>
                        <mxPoint x="1281" y="-6669.29" as="targetPoint"/>
                    </mxGeometry>
                </mxCell>
                <mxCell id="25" value="添加" style="text;html=1;strokeColor=none;fillColor=none;align=center;verticalAlign=middle;whiteSpace=wrap;rounded=0;" vertex="1" parent="1">
                    <mxGeometry x="1311" y="-6667" width="40" height="20" as="geometry"/>
                </mxCell>
                <mxCell id="26" value="删除" style="text;html=1;strokeColor=none;fillColor=none;align=center;verticalAlign=middle;whiteSpace=wrap;rounded=0;" vertex="1" parent="1">
                    <mxGeometry x="974" y="-6670" width="40" height="20" as="geometry"/>
                </mxCell>
            </root>
        </mxGraphModel>
    </diagram>
</mxfile>